# xmcd CD database file
#
# Track frame offsets:
#	150
#	20385
#	42465
#	56838
#	78108
#	95503
#	117412
#	137964
#	152648
#	171098
#	189494
#	205386
#
# Disc length: 2975 seconds
#
# Revision: 1
# Processed by: cddbd v1.5.2PL0 Copyright (c) Steve Scherf et al.
# Submitted via: jetAudio 7
#
DISCID=a30b9d0c
DTITLE=Alana Levandoski - Lions And WereWolves
DYEAR=1900
DGENRE=Americana
TTITLE0=Red Rover
TTITLE1=Dangerous One
TTITLE2=Lions And WereWolves
TTITLE3=Levi
TTITLE4=What Brought You Down
TTITLE5=Trapeze
TTITLE6=Hello
TTITLE7=Mercy
TTITLE8=Song For A Cougar
TTITLE9=As The Crow Flies
TTITLE10=Thine The Glory
TTITLE11=Crashed Car - Morning Star
EXTD=
EXTT0=
EXTT1=
EXTT2=
EXTT3=
EXTT4=
EXTT5=
EXTT6=
EXTT7=
EXTT8=
EXTT9=
EXTT10=
EXTT11=
PLAYORDER=
